<svg id="ndias" xmlns="http://www.w3.org/2000/svg" viewBox="0 0 841.9 595.3"><style>.st1{fill:#fff}</style><path d="M462.3 239.7c-10.6 0-18.4 8.4-18.4 18.3 0 8.8 6.4 14.2 14.6 14.2 10.6 0 18.4-8.4 18.4-18.3 0-8.9-6.4-14.2-14.6-14.2z" fill="#c50018"/><path class="st1" d="M630.7 302.7c2.7-.8 6.4-.8 9.4-.8h29.6l5.6-20.8h-31.1c-7.6 0-15.8 0-23.1 1.5-17.1 3.5-27.7 13.5-27.7 27.9 0 7.5 3.1 12.8 7.5 16.8 8.4 7.6 21.7 10.3 28.4 13.8 2.7 1.5 4.6 3.3 4.6 6.3 0 2.9-1.5 5.4-5.5 6.6-2.3.7-5.8.9-8.6.9h-34.4l-5.6 20.8h34c9.7 0 20.5-.1 29.3-2.8 15.1-4.7 22.4-14.9 22.4-28.7 0-6.9-2.6-11.8-6.7-15.6-8.3-7.7-21.9-10.3-29.3-14.1-2.6-1.3-4.3-3-4.4-5.6 0-2.7 1.6-5.1 5.6-6.2zm-217.1 73.1h29.3l24.9-93h-29.3zM398 243.1l-12.2 45.6c-5.8-5.7-14.8-9.1-25.3-9.1-31.5 0-56.2 25.4-56.2 57.8 0 24.5 15.5 40.3 42.9 40.3 23.9 0 42.1-11.3 51-31.1 2.9-6.5 4.9-13.8 7.3-22.5l21.7-80.9H398zm-47.9 111.7c-9.9 0-16.5-6.3-16.5-18.4 0-18.2 11.2-34.4 25.8-34.4 9.9 0 16.5 6.3 16.5 18.4 0 18.3-11.2 34.4-25.8 34.4zm181.8-75.3c-33.6 0-58.2 25.9-58.2 59.9 0 24.6 16.8 38.2 34.9 38.2 13.9 0 24.3-6.5 30.2-14.2l-3.3 12.3h25.6l8-29.8c3.9-14.4 5.3-26.2 3.7-35.2-3.3-18.5-17.7-31.2-40.9-31.2zm-12.2 75.6c-9.9 0-16.5-6.3-16.5-18.4 0-18.2 11.2-34.4 25.8-34.4 9.9 0 16.5 6.3 16.5 18.4-.1 18.2-11.2 34.4-25.8 34.4zM275 259.8l-19.5 72.6-30.6-72.6h-28.7l-31.1 115.9h29.5l20-74.5 31.5 74.5 27.4.1 31-116z"/><path class="st1" d="M675.3 252.6c-33.1-21-70-41.4-108.5-52-30.4-8.4-59.4-10.4-95.1-10.4-23.9 0-47.5 1.7-73.1 7.7-22.7 5.4-42.1 12.8-65.9 18.7-29 7.2-50.8 7.9-81.7 8.4l-6.1.1c-10.4.2-22.6 1.1-32.7 5.6-7.2 3.2-11 7-12 9.6 16.9-.3 28.3-.6 48.2-1 24.7-.5 48.5-.6 78.9-7.2 26.7-5.8 47.3-13.7 69.9-19.9 25.6-7.1 50.6-9.3 72.6-9.3 35.4 0 60.8 1.9 83.4 7.3 32.2 7.7 61.5 21.4 100.5 43.7H675l.3-1.3z"/></svg>